<svg width="201" height="68" viewBox="0 0 201 68" fill="none" xmlns="http://www.w3.org/2000/svg">
<path d="M0 0H167C185.778 0 201 15.2223 201 34C201 52.7777 185.778 68 167 68H0V0Z" fill="white"/>
<path d="M16 16C15.4696 16 14.9609 16.2107 14.5858 16.5858C14.2107 16.9608 14 17.4695 14 18V26V29C14 32.38 16.06 35.26 19 36.44V49C19 49.7956 19.3161 50.5587 19.8787 51.1213C20.4413 51.6839 21.2044 52 22 52C22.7956 52 23.5587 51.6839 24.1213 51.1213C24.6839 50.5587 25 49.7956 25 49V36.44C27.94 35.26 30 32.38 30 29V26V18C30 17.4695 29.7893 16.9608 29.4142 16.5858C29.0391 16.2107 28.5304 16 28 16C27.4696 16 26.9609 16.2107 26.5858 16.5858C26.2107 16.9608 26 17.4695 26 18V26C26 26.2652 25.8946 26.5196 25.7071 26.7071C25.5196 26.8946 25.2652 27 25 27C24.7348 27 24.4804 26.8946 24.2929 26.7071C24.1054 26.5196 24 26.2652 24 26V18C24 17.4695 23.7893 16.9608 23.4142 16.5858C23.0391 16.2107 22.5304 16 22 16C21.4696 16 20.9609 16.2107 20.5858 16.5858C20.2107 16.9608 20 17.4695 20 18V26C20 26.2652 19.8946 26.5196 19.7071 26.7071C19.5196 26.8946 19.2652 27 19 27C18.7348 27 18.4804 26.8946 18.2929 26.7071C18.1054 26.5196 18 26.2652 18 26V18C18 17.4695 17.7893 16.9608 17.4142 16.5858C17.0391 16.2107 16.5304 16 16 16ZM49.76 16C49.5 16 49.24 16.18 49 16.32L42 20.5V28H34V32H36L38 52H50L52 32H54V28H46V22.68L51 19.68C52 19.12 52.26 18 51.68 17C51.26 16.28 50.52 15.9 49.76 16Z" fill="#FF9723"/>
<path d="M71.2575 34.336H80.1375V35.872H71.2575V34.336ZM71.4495 43H69.6735V26.2H81.1935V27.736H71.4495V43ZM84.501 43V30.4H86.205V43H84.501ZM85.365 27.616C85.013 27.616 84.717 27.496 84.477 27.256C84.237 27.016 84.117 26.728 84.117 26.392C84.117 26.056 84.237 25.776 84.477 25.552C84.717 25.312 85.013 25.192 85.365 25.192C85.717 25.192 86.013 25.304 86.253 25.528C86.493 25.752 86.613 26.032 86.613 26.368C86.613 26.72 86.493 27.016 86.253 27.256C86.029 27.496 85.733 27.616 85.365 27.616ZM94.9303 43.12C93.7463 43.12 92.8343 42.8 92.1943 42.16C91.5543 41.52 91.2343 40.616 91.2343 39.448V27.616H92.9383V39.352C92.9383 40.088 93.1223 40.656 93.4903 41.056C93.8743 41.456 94.4183 41.656 95.1223 41.656C95.8743 41.656 96.4983 41.44 96.9943 41.008L97.5943 42.232C97.2583 42.536 96.8503 42.76 96.3703 42.904C95.9063 43.048 95.4263 43.12 94.9303 43.12ZM88.9783 31.816V30.4H96.7783V31.816H88.9783ZM111.418 43.144C110.33 43.144 109.362 42.968 108.514 42.616C107.666 42.248 106.994 41.744 106.498 41.104C106.018 40.464 105.778 39.72 105.778 38.872C105.778 38.152 105.938 37.496 106.258 36.904C106.578 36.296 107.09 35.704 107.794 35.128C108.514 34.536 109.466 33.92 110.65 33.28C111.658 32.72 112.442 32.24 113.002 31.84C113.578 31.424 113.986 31.032 114.226 30.664C114.466 30.28 114.586 29.872 114.586 29.44C114.586 28.816 114.37 28.312 113.938 27.928C113.522 27.544 112.922 27.352 112.138 27.352C111.29 27.352 110.634 27.568 110.17 28C109.706 28.416 109.474 28.96 109.474 29.632C109.474 29.968 109.522 30.288 109.618 30.592C109.73 30.896 109.93 31.232 110.218 31.6C110.522 31.968 110.938 32.432 111.466 32.992L120.346 42.136L119.362 43.264L110.098 33.736C109.538 33.144 109.09 32.632 108.754 32.2C108.434 31.752 108.21 31.328 108.082 30.928C107.954 30.528 107.89 30.104 107.89 29.656C107.89 28.936 108.058 28.312 108.394 27.784C108.746 27.24 109.242 26.824 109.882 26.536C110.522 26.232 111.274 26.08 112.138 26.08C112.922 26.08 113.602 26.216 114.178 26.488C114.77 26.744 115.226 27.12 115.546 27.616C115.882 28.112 116.05 28.712 116.05 29.416C116.05 30.024 115.898 30.592 115.594 31.12C115.306 31.648 114.826 32.168 114.154 32.68C113.482 33.176 112.57 33.736 111.418 34.36C110.41 34.92 109.61 35.432 109.018 35.896C108.442 36.36 108.034 36.816 107.794 37.264C107.554 37.696 107.434 38.176 107.434 38.704C107.434 39.312 107.602 39.848 107.938 40.312C108.29 40.76 108.77 41.112 109.378 41.368C110.002 41.608 110.714 41.728 111.514 41.728C112.634 41.728 113.634 41.496 114.514 41.032C115.394 40.568 116.13 39.864 116.722 38.92C117.33 37.976 117.77 36.792 118.042 35.368L119.41 35.8C119.106 37.4 118.586 38.744 117.85 39.832C117.114 40.92 116.202 41.744 115.114 42.304C114.026 42.864 112.794 43.144 111.418 43.144ZM131.258 34.336H140.138V35.872H131.258V34.336ZM131.45 43H129.674V26.2H141.194V27.736H131.45V43ZM149.215 43.12C147.999 43.12 146.903 42.848 145.927 42.304C144.967 41.744 144.207 40.984 143.647 40.024C143.087 39.048 142.807 37.936 142.807 36.688C142.807 35.424 143.087 34.312 143.647 33.352C144.207 32.392 144.967 31.64 145.927 31.096C146.887 30.552 147.983 30.28 149.215 30.28C150.463 30.28 151.567 30.552 152.527 31.096C153.503 31.64 154.263 32.392 154.807 33.352C155.367 34.312 155.647 35.424 155.647 36.688C155.647 37.936 155.367 39.048 154.807 40.024C154.263 40.984 153.503 41.744 152.527 42.304C151.551 42.848 150.447 43.12 149.215 43.12ZM149.215 41.608C150.127 41.608 150.935 41.408 151.639 41.008C152.343 40.592 152.895 40.016 153.295 39.28C153.711 38.528 153.919 37.664 153.919 36.688C153.919 35.696 153.711 34.832 153.295 34.096C152.895 33.36 152.343 32.792 151.639 32.392C150.935 31.976 150.135 31.768 149.239 31.768C148.343 31.768 147.543 31.976 146.839 32.392C146.135 32.792 145.575 33.36 145.159 34.096C144.743 34.832 144.535 35.696 144.535 36.688C144.535 37.664 144.743 38.528 145.159 39.28C145.575 40.016 146.135 40.592 146.839 41.008C147.543 41.408 148.335 41.608 149.215 41.608ZM164.262 43.12C163.046 43.12 161.95 42.848 160.974 42.304C160.014 41.744 159.254 40.984 158.694 40.024C158.134 39.048 157.854 37.936 157.854 36.688C157.854 35.424 158.134 34.312 158.694 33.352C159.254 32.392 160.014 31.64 160.974 31.096C161.934 30.552 163.03 30.28 164.262 30.28C165.51 30.28 166.614 30.552 167.574 31.096C168.55 31.64 169.31 32.392 169.854 33.352C170.414 34.312 170.694 35.424 170.694 36.688C170.694 37.936 170.414 39.048 169.854 40.024C169.31 40.984 168.55 41.744 167.574 42.304C166.598 42.848 165.494 43.12 164.262 43.12ZM164.262 41.608C165.174 41.608 165.982 41.408 166.686 41.008C167.39 40.592 167.942 40.016 168.342 39.28C168.758 38.528 168.966 37.664 168.966 36.688C168.966 35.696 168.758 34.832 168.342 34.096C167.942 33.36 167.39 32.792 166.686 32.392C165.982 31.976 165.182 31.768 164.286 31.768C163.39 31.768 162.59 31.976 161.886 32.392C161.182 32.792 160.622 33.36 160.206 34.096C159.79 34.832 159.582 35.696 159.582 36.688C159.582 37.664 159.79 38.528 160.206 39.28C160.622 40.016 161.182 40.592 161.886 41.008C162.59 41.408 163.382 41.608 164.262 41.608ZM179.189 43.12C177.989 43.12 176.909 42.848 175.949 42.304C175.005 41.76 174.261 41.008 173.717 40.048C173.173 39.072 172.901 37.952 172.901 36.688C172.901 35.408 173.173 34.288 173.717 33.328C174.261 32.368 175.005 31.624 175.949 31.096C176.909 30.552 177.989 30.28 179.189 30.28C180.293 30.28 181.277 30.528 182.141 31.024C183.021 31.52 183.717 32.248 184.229 33.208C184.757 34.152 185.021 35.312 185.021 36.688C185.021 38.048 184.765 39.208 184.253 40.168C183.741 41.128 183.045 41.864 182.165 42.376C181.301 42.872 180.309 43.12 179.189 43.12ZM179.309 41.608C180.205 41.608 181.005 41.408 181.709 41.008C182.429 40.592 182.989 40.016 183.389 39.28C183.805 38.528 184.013 37.664 184.013 36.688C184.013 35.696 183.805 34.832 183.389 34.096C182.989 33.36 182.429 32.792 181.709 32.392C181.005 31.976 180.205 31.768 179.309 31.768C178.429 31.768 177.637 31.976 176.933 32.392C176.229 32.792 175.669 33.36 175.253 34.096C174.837 34.832 174.629 35.696 174.629 36.688C174.629 37.664 174.837 38.528 175.253 39.28C175.669 40.016 176.229 40.592 176.933 41.008C177.637 41.408 178.429 41.608 179.309 41.608ZM184.061 43V39.208L184.229 36.664L183.989 34.12V25.192H185.693V43H184.061Z" fill="black"/>
</svg>
